<svg width="128" height="128" viewBox="0 0 128 128" fill="none" xmlns="http://www.w3.org/2000/svg">
<g clip-path="url(#clip0)">
<path d="M46.6358 121.876C46.6358 119.828 44.9756 118.168 42.9278 118.168H38.9111C36.8643 118.168 35.2041 119.828 35.2041 121.876C35.2041 123.924 36.8643 125.583 38.9111 125.583H42.9278C44.9756 125.583 46.6358 123.924 46.6358 121.876Z" fill="#C7D2E5"/>
<path d="M93.4629 121.876C93.4629 119.828 91.8038 118.168 89.7559 118.168H85.7393C83.6914 118.168 82.0312 119.828 82.0312 121.876C82.0312 123.924 83.6914 125.583 85.7393 125.583H89.7559C91.8038 125.583 93.4629 123.924 93.4629 121.876Z" fill="#C7D2E5"/>
<path d="M75.127 121.876C75.127 123.924 73.4669 125.584 71.419 125.584H57.2481C55.2002 125.584 53.54 123.924 53.54 121.876C53.54 119.828 55.2002 118.168 57.2481 118.168H71.419C73.4669 118.168 75.127 119.828 75.127 121.876Z" fill="#F0E939"/>
<path d="M43.3711 121.876C43.3711 120.597 44.0186 119.47 45.0039 118.803C44.4112 118.403 43.6973 118.168 42.9278 118.168H38.9121C36.8643 118.168 35.2041 119.828 35.2041 121.876C35.2041 123.924 36.8643 125.583 38.9121 125.583H42.9278C43.6973 125.583 44.4112 125.349 45.0039 124.948C44.0186 124.282 43.3711 123.154 43.3711 121.876Z" fill="#BAC7DB"/>
<path d="M90.1982 121.876C90.1982 120.597 90.8467 119.47 91.8311 118.803C91.2383 118.403 90.5244 118.168 89.7559 118.168H85.7393C83.6914 118.168 82.0312 119.828 82.0312 121.876C82.0312 123.924 83.6914 125.583 85.7393 125.583H89.7559C90.5244 125.583 91.2393 125.349 91.8311 124.948C90.8467 124.282 90.1982 123.154 90.1982 121.876Z" fill="#BAC7DB"/>
<path d="M61.707 121.876C61.707 119.828 63.3672 118.168 65.4151 118.168H57.2481C55.2002 118.168 53.54 119.828 53.54 121.876C53.54 123.924 55.2002 125.584 57.2481 125.584H65.4151C63.3672 125.584 61.707 123.924 61.707 121.876Z" fill="#CCC633"/>
<path d="M40.9198 30.3682C37.7762 30.3682 35.2039 32.9405 35.2039 36.0841C35.2039 110.501 35.1483 113.697 35.2039 115.194C35.2039 116.967 36.6551 118.418 38.4286 118.418H43.411C45.1844 118.418 46.5965 116.967 46.5965 115.194C46.6561 113.599 46.6356 110.396 46.6356 36.0841C46.6356 32.9405 44.0633 30.3682 40.9198 30.3682Z" fill="#E4EAF8"/>
<path d="M43.371 115.194C43.3153 113.697 43.371 110.501 43.371 36.0841C43.371 34.5372 43.995 33.129 45.0038 32.0967C43.9637 31.0323 42.5155 30.3682 40.9198 30.3682C37.7762 30.3682 35.2039 32.9405 35.2039 36.0841C35.2039 110.501 35.1483 113.697 35.2039 115.194C35.2039 116.967 36.6551 118.418 38.4286 118.418H43.411C43.992 118.418 44.5321 118.261 44.9979 117.989C44.0292 117.431 43.371 116.387 43.371 115.194Z" fill="#F1E939"/>
<path d="M87.9971 30.3682H87.7471C84.6035 30.3682 82.0312 32.9405 82.0312 36.0841V115.194C82.0312 116.967 83.4824 118.418 85.2568 118.418H90.2393C92.0127 118.418 93.7139 116.967 93.7139 115.194C93.7139 113.574 93.7139 36.7784 93.7139 36.0841C93.7129 32.9405 91.1416 30.3682 87.9971 30.3682Z" fill="#E4EAF8"/>
<path d="M90.1982 115.194C90.1982 114.419 90.1982 39.9552 90.1982 36.0841C90.1982 34.4737 90.875 33.0147 91.9561 31.9727C90.9268 30.9815 89.5303 30.3682 87.9971 30.3682H87.7471C84.6035 30.3682 82.0312 32.9405 82.0312 36.0841V115.194C82.0312 116.967 83.4824 118.418 85.2568 118.418H90.2393C90.8047 118.418 91.3633 118.27 91.8613 118.01C90.8721 117.458 90.1982 116.402 90.1982 115.194Z" fill="#F0E939"/>
<path d="M64.334 1.58398C54.4619 1.58398 46.3857 18.1836 46.3857 28.0547V115.468C46.3857 117.091 47.7129 118.418 49.3359 118.418H79.3311C80.9542 118.418 82.2813 117.091 82.2813 115.468C82.2813 114.881 82.2813 28.8721 82.2813 28.0547C82.2813 18.1836 74.2051 1.58398 64.334 1.58398Z" fill="#E5E5E5"/>
<path d="M54.5527 115.468C54.5527 112.006 54.5527 31.8741 54.5527 28.0547C54.5527 19.5869 60.4961 6.16895 68.417 2.52442C67.1045 1.91992 65.7373 1.58398 64.334 1.58398C54.4619 1.58398 46.3857 18.1836 46.3857 28.0547V115.468C46.3857 117.091 47.7129 118.418 49.3359 118.418H57.5039C55.8809 118.418 54.5527 117.091 54.5527 115.468Z" fill="#C0C0C0"/>
<path d="M97.0538 95.7394L74.209 81.3351V106.953H94.879C97.1153 106.953 98.9278 105.158 98.9278 102.944V99.1212C98.9278 97.7502 98.2208 96.4757 97.0538 95.7394Z" fill="#E5E5E5"/>
<path d="M74.209 81.3351V106.953H82.959V86.8527L74.209 81.3351Z" fill="#BFBFBF"/>
<path d="M31.6074 95.7394L54.3741 81.3351V106.953H33.7744C31.5459 106.953 29.7393 105.158 29.7393 102.944V99.1212C29.7393 97.7502 30.4434 96.4757 31.6074 95.7394Z" fill="#E5E5E5"/>
<path d="M38.4902 102.944V99.1203C38.4902 97.7502 39.1943 96.4757 40.3574 95.7394L54.3741 86.8712V81.3351L31.6074 95.7394C30.4434 96.4757 29.7393 97.7502 29.7393 99.1203V102.944C29.7393 105.158 31.5459 106.953 33.7744 106.953H42.5254C40.2969 106.953 38.4902 105.158 38.4902 102.944Z" fill="#BFBFBF"/>
<path d="M64.334 43.7149C58.7666 43.7149 54.2129 53.0763 54.2129 58.6427V108.694C54.2129 109.609 54.9609 110.358 55.876 110.358H72.7911C73.7061 110.358 74.4551 109.609 74.4551 108.694V58.6427C74.4551 53.0763 69.9004 43.7149 64.334 43.7149Z" fill="#E5E5E5"/>
<path d="M62.9629 108.693V58.6427C62.9629 54.6407 65.3174 48.6778 68.7091 45.6417C67.3829 44.4551 65.8985 43.7149 64.334 43.7149C58.7666 43.7149 54.2129 53.0763 54.2129 58.6427V108.694C54.2129 109.609 54.9609 110.358 55.876 110.358H64.627C63.712 110.357 62.9629 109.608 62.9629 108.693Z" fill="#BFBFBF"/>
<path d="M66.5283 60.2804H62.1396C61.1035 60.2804 60.2637 59.4406 60.2637 58.4054C60.2637 57.3693 61.1035 56.5294 62.1396 56.5294H66.5283C67.5635 56.5294 68.4033 57.3693 68.4033 58.4054C68.4033 59.4406 67.5635 60.2804 66.5283 60.2804Z" fill="#576574"/>
<path d="M64.334 114.531C62.2861 114.531 60.626 112.871 60.626 110.823V96.6525C60.626 94.6047 62.2861 92.9445 64.334 92.9445C66.3809 92.9445 68.0411 94.6047 68.0411 96.6525V110.823C68.0411 112.871 66.3809 114.531 64.334 114.531Z" fill="#FF6B6B"/>
<path d="M65.6689 110.823V96.6525C65.6689 95.5793 66.127 94.6164 66.8555 93.9396C66.1934 93.3234 65.3086 92.9445 64.334 92.9445C62.2861 92.9445 60.626 94.6047 60.626 96.6525V110.823C60.626 112.871 62.2861 114.531 64.334 114.531C65.3086 114.531 66.1934 114.153 66.8555 113.536C66.127 112.86 65.6689 111.897 65.6689 110.823Z" fill="#C54041"/>
<path d="M64.2186 -0.25C52.8348 -0.25 44.3953 17.6963 44.3953 28.0967V29.5821C43.2683 28.918 41.9558 28.5352 40.5545 28.5352C36.3689 28.5352 32.9636 31.9405 32.9636 36.126V92.6125L30.4734 94.1984H30.4724C28.7673 95.2853 27.7498 97.1408 27.7498 99.1623V102.986C27.7498 106.003 30.0339 108.496 32.9636 108.83V115.235C32.9636 116.529 33.4519 117.708 34.2488 118.608C33.447 119.574 32.9636 120.816 32.9636 122.167C32.9636 125.245 35.4685 127.75 38.5467 127.75H42.5633C45.6414 127.75 48.1453 125.245 48.1453 122.167C48.1453 121.438 48.0037 120.741 47.7488 120.103C48.2127 120.252 48.7068 120.334 49.2205 120.334H51.8602C51.66 120.909 51.5496 121.525 51.5496 122.167C51.5496 125.245 54.0545 127.75 57.1326 127.75H59.8436C60.8787 127.75 61.7186 126.91 61.7186 125.875C61.7186 124.839 60.8787 124 59.8436 124H57.1326C56.1219 124 55.2996 123.178 55.2996 122.167C55.2996 121.156 56.1219 120.334 57.1326 120.334H71.3045C72.3143 120.334 73.1366 121.156 73.1366 122.167C73.1366 123.178 72.3143 124 71.3045 124H68.5936C67.5584 124 66.7186 124.839 66.7186 125.875C66.7186 126.91 67.5584 127.75 68.5936 127.75H71.3045C74.3827 127.75 76.8866 125.245 76.8866 122.167C76.8866 121.526 76.7762 120.909 76.576 120.334H79.2157C79.7294 120.334 80.2235 120.252 80.6883 120.103C80.4335 120.741 80.2919 121.438 80.2919 122.167C80.2919 125.245 82.7958 127.75 85.8739 127.75H89.8905C92.9686 127.75 95.4735 125.245 95.4735 122.167C95.4735 120.816 94.9901 119.574 94.1884 118.608C94.9852 117.708 95.4735 116.529 95.4735 115.235V108.83C98.4032 108.496 100.687 106.003 100.687 102.986V99.1613C100.687 97.1398 99.6698 95.2844 97.9647 94.1984C97.9647 94.1984 97.9647 94.1984 97.9638 94.1984L95.4725 92.6125V69.9113C95.4725 68.8751 94.6337 68.0363 93.5975 68.0363C92.5624 68.0363 91.7225 68.8751 91.7225 69.9113V90.2238L84.0409 85.3322V36.126C84.0409 34.0079 85.7645 32.2852 87.8817 32.2852C89.9999 32.2852 91.7225 34.0079 91.7225 36.126V61.1613C91.7225 62.1964 92.5614 63.0363 93.5975 63.0363C94.6337 63.0363 95.4725 62.1964 95.4725 61.1613V36.126C95.4725 31.9405 92.0673 28.5352 87.8817 28.5352C86.4803 28.5352 85.1688 28.918 84.0409 29.5821V28.0967C84.0419 17.6748 75.5877 -0.25 64.2186 -0.25V-0.25ZM48.1463 28.0967C48.1463 18.8399 55.8152 3.50001 64.2186 3.50001C72.62 3.50001 80.2919 18.835 80.2919 28.0967V82.9435L76.2147 80.3478V58.6837C76.2147 52.3829 71.1825 41.8809 64.2186 41.8809C57.2557 41.8809 52.2225 52.3829 52.2225 58.6837V80.3478L48.1463 82.9435C48.1463 81.8068 48.1463 33.9766 48.1463 28.0967ZM64.2186 91.1105C61.1404 91.1105 58.6356 93.6154 58.6356 96.6935V108.523H55.9725C55.9725 106.068 55.9725 61.257 55.9725 58.6837C55.9725 53.8898 60.0477 45.6309 64.2186 45.6309C68.3905 45.6309 72.4647 53.8898 72.4647 58.6837V108.523H69.8016V96.6935C69.8016 93.6154 67.2967 91.1105 64.2186 91.1105ZM66.0516 96.6935V110.865C66.0516 111.876 65.2293 112.697 64.2186 112.697C63.2078 112.697 62.3856 111.876 62.3856 110.865C62.3856 109.153 62.3856 98.4016 62.3856 96.6935C62.3856 95.6828 63.2078 94.8605 64.2186 94.8605C65.2293 94.8605 66.0516 95.6828 66.0516 96.6935ZM36.7136 36.126C36.7136 34.0079 38.4373 32.2852 40.5545 32.2852C42.6726 32.2852 44.3953 34.0079 44.3953 36.126V85.3322C43.3299 86.0109 44.0916 85.5256 36.7136 90.2238V36.126ZM42.5633 124H38.5467C37.5359 124 36.7146 123.178 36.7146 122.167C36.7146 121.156 37.5359 120.335 38.5467 120.335H42.5633C43.574 120.335 44.3953 121.156 44.3953 122.167C44.3953 123.178 43.574 124 42.5633 124ZM44.3953 115.236C44.3953 115.98 43.7908 116.584 43.0467 116.584C41.2254 116.584 39.8406 116.584 38.0642 116.584C37.3191 116.584 36.7146 115.98 36.7146 115.236V108.869H44.3963V115.236H44.3953ZM33.6336 105.119C32.4568 105.119 31.4998 104.162 31.4998 102.986V99.1623C31.4998 98.4289 31.8689 97.7561 32.4871 97.3625C34.5906 96.0226 50.1092 86.1398 52.2225 84.7931V105.119C47.8709 105.119 35.199 105.119 33.6336 105.119ZM80.2919 115.509C80.2919 116.092 79.7987 116.584 79.2167 116.584C76.0233 116.584 52.41 116.584 49.2205 116.584C48.6385 116.584 48.1453 116.092 48.1453 115.509C48.1453 113.898 48.1453 112.998 48.1453 108.869H52.2293C52.3006 110.758 53.8553 112.274 55.7615 112.274H58.8162C60.2625 117.819 68.1756 117.817 69.6209 112.274H72.6756C74.5819 112.274 76.1366 110.758 76.2079 108.869H80.2919V115.509ZM89.8905 124H85.8749C84.8641 124 84.0419 123.178 84.0419 122.167C84.0419 121.156 84.8641 120.335 85.8749 120.335H89.8905C90.9013 120.335 91.7235 121.156 91.7235 122.167C91.7235 123.178 90.9013 124 89.8905 124ZM91.7235 115.236C91.7235 115.98 91.118 116.584 90.3739 116.584C88.5702 116.584 87.2548 116.584 85.3915 116.584C84.6473 116.584 84.0419 115.98 84.0419 115.236V108.869H91.7235V115.236ZM95.9501 97.3625C96.5683 97.7561 96.9374 98.4289 96.9374 99.1623V102.986C96.9374 104.162 95.9804 105.119 94.8036 105.119C91.7821 105.119 78.2997 105.119 76.2147 105.119V84.7941C78.4227 86.2004 92.997 95.4816 95.9501 97.3625Z" fill="black"/>
<path d="M66.4131 56.5714H62.0244C60.9883 56.5714 60.1494 57.4103 60.1494 58.4464C60.1494 59.4816 60.9883 60.3214 62.0244 60.3214H66.4131C67.4493 60.3214 68.2891 59.4816 68.2891 58.4464C68.2891 57.4103 67.4493 56.5714 66.4131 56.5714Z" fill="black"/>
</g>
<defs>
<clipPath id="clip0">
<rect width="128" height="128" fill="white"/>
</clipPath>
</defs>
</svg>
